<svg xmlns="http://www.w3.org/2000/svg" xmlns:xlink="http://www.w3.org/1999/xlink" width="68" height="68" viewBox="0 0 68 68">
  <defs>
    <clipPath id="clip-path">
      <rect id="Rectangle_2959" data-name="Rectangle 2959" width="68" height="68" transform="translate(425 623)" fill="#fff" stroke="#707070" stroke-width="1"/>
    </clipPath>
  </defs>
  <g id="Mask_Group_225" data-name="Mask Group 225" transform="translate(-425 -623)" clip-path="url(#clip-path)">
    <path id="icons8-discord" d="M49.533,11.522C44.758,7.68,37.2,7.028,36.881,7a1.191,1.191,0,0,0-1.186.7,7.954,7.954,0,0,0-.365,1,29.456,29.456,0,0,1,10.548,3.786,1.2,1.2,0,1,1-1.265,2.038C38.577,10.786,31.043,10.6,29.59,10.6s-8.992.187-15.023,3.931A1.2,1.2,0,0,1,13.3,12.492,29.441,29.441,0,0,1,23.85,8.711a9.935,9.935,0,0,0-.361-1A1.184,1.184,0,0,0,22.3,7c-.323.023-7.877.675-12.717,4.569C7.056,13.912,2,27.575,2,39.388a1.2,1.2,0,0,0,.159.6c3.486,6.129,13,7.732,15.173,7.8h.037a1.2,1.2,0,0,0,.97-.492l2.193-3.018A23.289,23.289,0,0,1,11.418,40a1.2,1.2,0,0,1,1.588-1.8c.07.066,5.637,4.789,16.583,4.789,10.965,0,16.531-4.742,16.588-4.789A1.2,1.2,0,0,1,47.761,40a23.289,23.289,0,0,1-9.114,4.278l2.193,3.018a1.2,1.2,0,0,0,.97.492h.037c2.17-.07,11.686-1.673,15.173-7.8a1.2,1.2,0,0,0,.159-.6C57.18,27.575,52.124,13.912,49.533,11.522ZM21.793,34.59c-2.319,0-4.2-2.146-4.2-4.8s1.879-4.8,4.2-4.8,4.2,2.146,4.2,4.8S24.112,34.59,21.793,34.59Zm15.594,0c-2.319,0-4.2-2.146-4.2-4.8s1.879-4.8,4.2-4.8,4.2,2.146,4.2,4.8S39.707,34.59,37.387,34.59Z" transform="translate(429.41 629.608)" fill="#ffeba1"/>
  </g>
</svg>
