<svg xmlns="http://www.w3.org/2000/svg" xmlns:xlink="http://www.w3.org/1999/xlink" width="40" height="40" viewBox="0 0 40 40">
  <defs>
    <clipPath id="clip-path">
      <rect id="Rectangle_2979" data-name="Rectangle 2979" width="40" height="40" transform="translate(1638)" fill="#fff" stroke="#707070" stroke-width="1"/>
    </clipPath>
  </defs>
  <g id="Mask_Group_234" data-name="Mask Group 234" transform="translate(-1638)" clip-path="url(#clip-path)">
    <path id="menu_FILL0_wght700_GRAD200_opsz48" d="M6.752,27.416a1.5,1.5,0,0,1-1.061-.409A1.321,1.321,0,0,1,5.25,26a1.356,1.356,0,0,1,.441-1.039,1.5,1.5,0,0,1,1.061-.409H28.266a1.435,1.435,0,0,1,1.028.425,1.407,1.407,0,0,1,0,2.046,1.5,1.5,0,0,1-1.028.394Zm0-6.894A1.474,1.474,0,0,1,5.691,20.1a1.37,1.37,0,0,1-.441-1.023,1.307,1.307,0,0,1,.441-1.023,1.538,1.538,0,0,1,1.061-.394H28.266a1.5,1.5,0,0,1,1.028.394,1.307,1.307,0,0,1,.441,1.023,1.356,1.356,0,0,1-.441,1.039,1.464,1.464,0,0,1-1.028.409Zm0-6.926a1.474,1.474,0,0,1-1.061-.425,1.37,1.37,0,0,1-.441-1.023,1.356,1.356,0,0,1,.441-1.039A1.5,1.5,0,0,1,6.752,10.7H28.266a1.464,1.464,0,0,1,1.028.409,1.445,1.445,0,0,1,0,2.078,1.464,1.464,0,0,1-1.028.409Z" transform="translate(1640.685 1.162)" fill="#6f69ac"/>
  </g>
</svg>
