<svg xmlns="http://www.w3.org/2000/svg" xmlns:xlink="http://www.w3.org/1999/xlink" width="60" height="60" viewBox="0 0 60 60">
  <defs>
    <clipPath id="clip-path">
      <rect id="Rectangle_2958" data-name="Rectangle 2958" width="60" height="60" transform="translate(0.023 -0.275)" fill="#6f69ac" stroke="#707070" stroke-width="1"/>
    </clipPath>
  </defs>
  <g id="Mask_Group_224" data-name="Mask Group 224" transform="translate(-0.022 0.275)" opacity="0.8" clip-path="url(#clip-path)">
    <g id="eye" transform="translate(5.013 18.227)">
      <g id="Group_2893" data-name="Group 2893" transform="translate(0 0)">
        <g id="Group_2892" data-name="Group 2892" transform="translate(0 0)">
          <path id="Path_1910" data-name="Path 1910" d="M49.295,132.758C48.851,132.278,38.188,121,24.833,121S.814,132.278.37,132.758a1.379,1.379,0,0,0,0,1.882c.443.48,11.107,11.758,24.462,11.758s24.019-11.278,24.462-11.758A1.38,1.38,0,0,0,49.295,132.758ZM24.833,143.576a9.881,9.881,0,1,1,0-19.754,9.881,9.881,0,1,1,0,19.754Z" transform="translate(0.001 -121)" fill="#6f69ac"/>
        </g>
      </g>
      <g id="Group_2895" data-name="Group 2895" transform="translate(17.558 5.644)">
        <g id="Group_2894" data-name="Group 2894">
          <path id="Path_1911" data-name="Path 1911" d="M189.73,185.233a4.183,4.183,0,0,1,1.832-3.436,7.361,7.361,0,0,0-3.287-.8,7.058,7.058,0,1,0,7.151,8.244A4.319,4.319,0,0,1,189.73,185.233Z" transform="translate(-181 -181)" fill="#6f69ac"/>
        </g>
      </g>
    </g>
  </g>
</svg>
