<svg id="account_balance_wallet_black_24dp" xmlns="http://www.w3.org/2000/svg" width="45" height="45" viewBox="0 0 45 45">
  <path id="Path_1" data-name="Path 1" d="M0,0H45V45H0Z" fill="none"/>
  <path id="Path_2" data-name="Path 2" d="M36.147,30.488v1.833a3.685,3.685,0,0,1-3.683,3.665H6.683A3.673,3.673,0,0,1,3,32.321V6.665A3.673,3.673,0,0,1,6.683,3H32.464a3.685,3.685,0,0,1,3.683,3.665V8.5H19.573a3.673,3.673,0,0,0-3.683,3.665v14.66a3.673,3.673,0,0,0,3.683,3.665ZM19.573,26.823H37.988V12.163H19.573Zm7.366-4.581A2.749,2.749,0,1,1,29.7,19.493,2.752,2.752,0,0,1,26.939,22.242Z" transform="translate(3.007 3.007)" fill="#fff"/>
</svg>
